<svg width="1400" height="1400" viewBox="0 0 1400 1400" fill="none" xmlns="http://www.w3.org/2000/svg">
<g clip-path="url(#clip0_105_7)">
<rect width="1400" height="1400" rx="400" fill="white"/>
<path d="M388.045 368.566C384.035 345.823 406.149 327.267 427.85 335.166L1143.99 595.82C1165.69 603.719 1170.71 632.148 1153.02 646.992L569.211 1136.86C551.52 1151.71 524.393 1141.83 520.383 1119.09L388.045 368.566Z" fill="#FF2323"/>
<path d="M657.483 668.796C652.037 668.796 647.16 669.873 642.853 672.026C638.673 674.179 635.127 677.283 632.213 681.336C629.3 685.263 627.083 690.076 625.563 695.776C624.17 701.476 623.473 707.873 623.473 714.966C623.473 724.593 624.613 732.826 626.893 739.666C629.3 746.379 633.037 751.509 638.103 755.056C643.17 758.603 649.63 760.376 657.483 760.376C663.057 760.376 668.567 759.743 674.013 758.476C679.587 757.209 685.603 755.436 692.063 753.156V777.286C686.11 779.693 680.22 781.466 674.393 782.606C668.567 783.746 662.043 784.316 654.823 784.316C640.89 784.316 629.363 781.466 620.243 775.766C611.25 769.939 604.6 761.833 600.293 751.446C595.987 740.933 593.833 728.709 593.833 714.776C593.833 704.516 595.227 695.143 598.013 686.656C600.8 678.043 604.853 670.633 610.173 664.426C615.62 658.219 622.27 653.406 630.123 649.986C638.103 646.566 647.223 644.856 657.483 644.856C664.197 644.856 670.91 645.743 677.623 647.516C684.463 649.163 690.987 651.443 697.193 654.356L687.883 677.726C682.817 675.319 677.687 673.229 672.493 671.456C667.427 669.683 662.423 668.796 657.483 668.796ZM812.85 730.356C812.85 738.969 811.647 746.633 809.24 753.346C806.96 760.059 803.603 765.759 799.17 770.446C794.863 775.006 789.607 778.489 783.4 780.896C777.193 783.176 770.163 784.316 762.31 784.316C755.09 784.316 748.377 783.176 742.17 780.896C736.09 778.489 730.833 775.006 726.4 770.446C721.967 765.759 718.483 760.059 715.95 753.346C713.543 746.633 712.34 738.969 712.34 730.356C712.34 718.829 714.367 709.139 718.42 701.286C722.473 693.306 728.3 687.226 735.9 683.046C743.5 678.866 752.493 676.776 762.88 676.776C772.633 676.776 781.247 678.866 788.72 683.046C796.193 687.226 802.083 693.306 806.39 701.286C810.697 709.139 812.85 718.829 812.85 730.356ZM741.22 730.356C741.22 737.196 741.917 742.959 743.31 747.646C744.83 752.206 747.173 755.689 750.34 758.096C753.507 760.376 757.623 761.516 762.69 761.516C767.757 761.516 771.81 760.376 774.85 758.096C778.017 755.689 780.297 752.206 781.69 747.646C783.21 742.959 783.97 737.196 783.97 730.356C783.97 723.516 783.21 717.816 781.69 713.256C780.297 708.696 778.017 705.276 774.85 702.996C771.683 700.716 767.567 699.576 762.5 699.576C755.027 699.576 749.58 702.173 746.16 707.366C742.867 712.433 741.22 720.096 741.22 730.356ZM958.037 676.776C969.817 676.776 978.683 679.816 984.637 685.896C990.717 691.849 993.757 701.476 993.757 714.776V782.416H965.447V721.806C965.447 714.333 964.18 708.759 961.647 705.086C959.113 701.286 955.187 699.386 949.867 699.386C942.393 699.386 937.073 702.046 933.907 707.366C930.74 712.686 929.157 720.349 929.157 730.356V782.416H900.847V721.806C900.847 716.866 900.277 712.749 899.137 709.456C897.997 706.163 896.287 703.693 894.007 702.046C891.727 700.273 888.813 699.386 885.267 699.386C880.073 699.386 875.957 700.716 872.917 703.376C869.877 706.036 867.723 709.899 866.457 714.966C865.19 720.033 864.557 726.239 864.557 733.586V782.416H836.247V678.676H857.907L861.707 691.976H863.227C865.38 688.429 868.04 685.579 871.207 683.426C874.373 681.146 877.857 679.499 881.657 678.486C885.583 677.346 889.51 676.776 893.437 676.776C901.037 676.776 907.497 678.043 912.817 680.576C918.137 682.983 922.19 686.783 924.977 691.976H927.447C930.613 686.656 934.983 682.793 940.557 680.386C946.257 677.979 952.083 676.776 958.037 676.776ZM1051.22 678.676V782.416H1022.91V678.676H1051.22ZM1037.16 638.016C1041.34 638.016 1044.95 639.029 1047.99 641.056C1051.03 642.956 1052.55 646.566 1052.55 651.886C1052.55 657.079 1051.03 660.689 1047.99 662.716C1044.95 664.743 1041.34 665.756 1037.16 665.756C1032.85 665.756 1029.18 664.743 1026.14 662.716C1023.22 660.689 1021.77 657.079 1021.77 651.886C1021.77 646.566 1023.22 642.956 1026.14 641.056C1029.18 639.029 1032.85 638.016 1037.16 638.016ZM1122.98 784.316C1112.72 784.316 1103.98 782.479 1096.76 778.806C1089.54 775.006 1084.03 769.179 1080.23 761.326C1076.43 753.473 1074.53 743.403 1074.53 731.116C1074.53 718.449 1076.68 708.126 1080.99 700.146C1085.29 692.166 1091.25 686.276 1098.85 682.476C1106.57 678.676 1115.44 676.776 1125.45 676.776C1132.54 676.776 1138.68 677.473 1143.88 678.866C1149.2 680.259 1153.82 681.906 1157.75 683.806L1149.39 705.656C1144.95 703.883 1140.77 702.426 1136.85 701.286C1133.05 700.146 1129.25 699.576 1125.45 699.576C1120.51 699.576 1116.39 700.779 1113.1 703.186C1109.8 705.466 1107.33 708.949 1105.69 713.636C1104.17 718.196 1103.41 723.959 1103.41 730.926C1103.41 737.766 1104.23 743.466 1105.88 748.026C1107.65 752.459 1110.18 755.816 1113.48 758.096C1116.77 760.249 1120.76 761.326 1125.45 761.326C1131.4 761.326 1136.66 760.566 1141.22 759.046C1145.78 757.399 1150.21 755.183 1154.52 752.396V776.526C1150.21 779.313 1145.65 781.276 1140.84 782.416C1136.15 783.683 1130.2 784.316 1122.98 784.316ZM1250.79 751.636C1250.79 758.603 1249.14 764.556 1245.85 769.496C1242.55 774.309 1237.61 777.983 1231.03 780.516C1224.44 783.049 1216.27 784.316 1206.52 784.316C1199.3 784.316 1193.09 783.809 1187.9 782.796C1182.7 781.909 1177.51 780.389 1172.32 778.236V754.866C1177.89 757.399 1183.91 759.489 1190.37 761.136C1196.83 762.783 1202.53 763.606 1207.47 763.606C1213.04 763.606 1216.97 762.783 1219.25 761.136C1221.65 759.489 1222.86 757.336 1222.86 754.676C1222.86 752.903 1222.35 751.319 1221.34 749.926C1220.45 748.533 1218.42 746.949 1215.26 745.176C1212.09 743.403 1207.15 741.123 1200.44 738.336C1193.98 735.549 1188.66 732.826 1184.48 730.166C1180.3 727.379 1177.19 724.086 1175.17 720.286C1173.14 716.359 1172.13 711.483 1172.13 705.656C1172.13 696.029 1175.86 688.809 1183.34 683.996C1190.81 679.183 1200.75 676.776 1213.17 676.776C1219.63 676.776 1225.77 677.409 1231.6 678.676C1237.42 679.943 1243.44 682.033 1249.65 684.946L1241.1 705.276C1237.68 703.756 1234.38 702.426 1231.22 701.286C1228.05 700.146 1224.95 699.259 1221.91 698.626C1218.99 697.993 1215.95 697.676 1212.79 697.676C1208.61 697.676 1205.44 698.246 1203.29 699.386C1201.26 700.526 1200.25 702.236 1200.25 704.516C1200.25 706.163 1200.75 707.683 1201.77 709.076C1202.91 710.343 1205 711.736 1208.04 713.256C1211.2 714.776 1215.83 716.803 1221.91 719.336C1227.86 721.743 1232.99 724.276 1237.3 726.936C1241.6 729.469 1244.9 732.699 1247.18 736.626C1249.58 740.426 1250.79 745.429 1250.79 751.636Z" fill="#181972"/>
<path d="M244.291 632.416H215.981V496.756H293.691V520.316H244.291V555.276H290.271V578.836H244.291V632.416ZM413.168 528.676V632.416H391.508L387.708 619.116H386.188C384.035 622.663 381.248 625.576 377.828 627.856C374.535 630.009 370.862 631.593 366.808 632.606C362.755 633.746 358.575 634.316 354.268 634.316C346.922 634.316 340.462 632.986 334.888 630.326C329.315 627.666 325.008 623.549 321.968 617.976C318.928 612.403 317.408 605.183 317.408 596.316V528.676H345.718V589.286C345.718 596.633 347.048 602.206 349.708 606.006C352.368 609.806 356.612 611.706 362.438 611.706C368.265 611.706 372.762 610.376 375.928 607.716C379.222 605.056 381.502 601.193 382.768 596.126C384.162 591.059 384.858 584.853 384.858 577.506V528.676H413.168ZM501.751 526.776C512.898 526.776 521.828 529.816 528.541 535.896C535.255 541.849 538.611 551.476 538.611 564.776V632.416H510.301V571.806C510.301 564.333 508.971 558.759 506.311 555.086C503.651 551.286 499.408 549.386 493.581 549.386C484.968 549.386 479.078 552.363 475.911 558.316C472.745 564.143 471.161 572.566 471.161 583.586V632.416H442.851V528.676H464.511L468.311 541.976H469.831C472.111 538.429 474.898 535.579 478.191 533.426C481.485 531.146 485.158 529.499 489.211 528.486C493.265 527.346 497.445 526.776 501.751 526.776ZM626.624 526.776C637.771 526.776 646.701 529.816 653.414 535.896C660.128 541.849 663.484 551.476 663.484 564.776V632.416H635.174V571.806C635.174 564.333 633.844 558.759 631.184 555.086C628.524 551.286 624.281 549.386 618.454 549.386C609.841 549.386 603.951 552.363 600.784 558.316C597.618 564.143 596.034 572.566 596.034 583.586V632.416H567.724V528.676H589.384L593.184 541.976H594.704C596.984 538.429 599.771 535.579 603.064 533.426C606.358 531.146 610.031 529.499 614.084 528.486C618.138 527.346 622.318 526.776 626.624 526.776ZM677.777 528.676H708.747L728.317 587.006C728.951 588.906 729.457 590.806 729.837 592.706C730.344 594.606 730.724 596.569 730.977 598.596C731.357 600.623 731.611 602.776 731.737 605.056H732.307C732.687 601.763 733.194 598.659 733.827 595.746C734.587 592.706 735.411 589.793 736.297 587.006L755.487 528.676H785.887L741.997 645.716C739.337 652.809 735.854 658.763 731.547 663.576C727.367 668.389 722.491 671.999 716.917 674.406C711.344 676.813 705.264 678.016 698.677 678.016C695.511 678.016 692.724 677.826 690.317 677.446C688.037 677.193 686.011 676.876 684.237 676.496V654.076C685.631 654.329 687.277 654.583 689.177 654.836C691.204 655.089 693.294 655.216 695.447 655.216C699.374 655.216 702.731 654.393 705.517 652.746C708.431 651.099 710.837 648.819 712.737 645.906C714.637 643.119 716.157 640.079 717.297 636.786L719.007 631.656L677.777 528.676Z" fill="#181972"/>
<path d="M428.913 924.416V788.756H457.603V900.666H512.703V924.416H428.913ZM576.624 818.586C590.557 818.586 601.197 821.626 608.544 827.706C616.017 833.659 619.754 842.843 619.754 855.256V924.416H599.994L594.484 910.356H593.724C590.811 914.029 587.771 917.069 584.604 919.476C581.564 921.883 578.017 923.593 573.964 924.606C570.037 925.746 565.161 926.316 559.334 926.316C553.254 926.316 547.744 925.176 542.804 922.896C537.991 920.489 534.191 916.879 531.404 912.066C528.617 907.126 527.224 900.919 527.224 893.446C527.224 882.426 531.087 874.319 538.814 869.126C546.541 863.806 558.131 860.893 573.584 860.386L591.634 859.816V855.256C591.634 849.809 590.177 845.819 587.264 843.286C584.477 840.753 580.551 839.486 575.484 839.486C570.417 839.486 565.477 840.246 560.664 841.766C555.851 843.159 551.037 844.933 546.224 847.086L536.914 827.896C542.487 824.983 548.631 822.703 555.344 821.056C562.184 819.409 569.277 818.586 576.624 818.586ZM580.614 876.726C571.494 876.979 565.161 878.626 561.614 881.666C558.067 884.706 556.294 888.696 556.294 893.636C556.294 897.943 557.561 901.046 560.094 902.946C562.627 904.719 565.921 905.606 569.974 905.606C576.054 905.606 581.184 903.833 585.364 900.286C589.544 896.613 591.634 891.483 591.634 884.896V876.346L580.614 876.726ZM707.632 818.776C718.779 818.776 727.709 821.816 734.422 827.896C741.135 833.849 744.492 843.476 744.492 856.776V924.416H716.182V863.806C716.182 856.333 714.852 850.759 712.192 847.086C709.532 843.286 705.289 841.386 699.462 841.386C690.849 841.386 684.959 844.363 681.792 850.316C678.625 856.143 677.042 864.566 677.042 875.586V924.416H648.732V820.676H670.392L674.192 833.976H675.712C677.992 830.429 680.779 827.579 684.072 825.426C687.365 823.146 691.039 821.499 695.092 820.486C699.145 819.346 703.325 818.776 707.632 818.776ZM806.475 926.316C794.948 926.316 785.512 921.819 778.165 912.826C770.945 903.706 767.335 890.343 767.335 872.736C767.335 855.003 771.008 841.576 778.355 832.456C785.702 823.336 795.328 818.776 807.235 818.776C812.175 818.776 816.545 819.473 820.345 820.866C824.145 822.133 827.375 823.906 830.035 826.186C832.822 828.466 835.165 831.063 837.065 833.976H838.015C837.635 831.949 837.192 829.036 836.685 825.236C836.178 821.309 835.925 817.319 835.925 813.266V780.016H864.235V924.416H842.575L837.065 910.926H835.925C834.152 913.713 831.872 916.309 829.085 918.716C826.425 920.996 823.258 922.833 819.585 924.226C815.912 925.619 811.542 926.316 806.475 926.316ZM816.355 903.706C824.208 903.706 829.718 901.426 832.885 896.866C836.052 892.179 837.698 885.213 837.825 875.966V872.926C837.825 862.793 836.242 855.066 833.075 849.746C830.035 844.426 824.335 841.766 815.975 841.766C809.768 841.766 804.892 844.489 801.345 849.936C797.798 855.256 796.025 862.983 796.025 873.116C796.025 883.249 797.798 890.913 801.345 896.106C804.892 901.173 809.895 903.706 816.355 903.706Z" fill="#181972"/>
</g>
<defs>
<clipPath id="clip0_105_7">
<rect width="1400" height="1400" rx="400" fill="white"/>
</clipPath>
</defs>
</svg>
