<svg width="1410" height="1410" viewBox="0 0 1410 1410" fill="none" xmlns="http://www.w3.org/2000/svg">
<path d="M383.606 321.978L1197.4 618.176L533.99 1174.85L383.606 321.978Z" fill="#FF2323"/>
<path d="M662.067 673.38C656.621 673.38 651.744 674.457 647.437 676.61C643.257 678.763 639.711 681.867 636.797 685.92C633.884 689.847 631.667 694.66 630.147 700.36C628.754 706.06 628.057 712.457 628.057 719.55C628.057 729.177 629.197 737.41 631.477 744.25C633.884 750.963 637.621 756.093 642.687 759.64C647.754 763.187 654.214 764.96 662.067 764.96C667.641 764.96 673.151 764.327 678.597 763.06C684.171 761.793 690.187 760.02 696.647 757.74V781.87C690.694 784.277 684.804 786.05 678.977 787.19C673.151 788.33 666.627 788.9 659.407 788.9C645.474 788.9 633.947 786.05 624.827 780.35C615.834 774.523 609.184 766.417 604.877 756.03C600.571 745.517 598.417 733.293 598.417 719.36C598.417 709.1 599.811 699.727 602.597 691.24C605.384 682.627 609.437 675.217 614.757 669.01C620.204 662.803 626.854 657.99 634.707 654.57C642.687 651.15 651.807 649.44 662.067 649.44C668.781 649.44 675.494 650.327 682.207 652.1C689.047 653.747 695.571 656.027 701.777 658.94L692.467 682.31C687.401 679.903 682.271 677.813 677.077 676.04C672.011 674.267 667.007 673.38 662.067 673.38ZM817.434 734.94C817.434 743.553 816.231 751.217 813.824 757.93C811.544 764.643 808.187 770.343 803.754 775.03C799.447 779.59 794.191 783.073 787.984 785.48C781.777 787.76 774.747 788.9 766.894 788.9C759.674 788.9 752.961 787.76 746.754 785.48C740.674 783.073 735.417 779.59 730.984 775.03C726.551 770.343 723.067 764.643 720.534 757.93C718.127 751.217 716.924 743.553 716.924 734.94C716.924 723.413 718.951 713.723 723.004 705.87C727.057 697.89 732.884 691.81 740.484 687.63C748.084 683.45 757.077 681.36 767.464 681.36C777.217 681.36 785.831 683.45 793.304 687.63C800.777 691.81 806.667 697.89 810.974 705.87C815.281 713.723 817.434 723.413 817.434 734.94ZM745.804 734.94C745.804 741.78 746.501 747.543 747.894 752.23C749.414 756.79 751.757 760.273 754.924 762.68C758.091 764.96 762.207 766.1 767.274 766.1C772.341 766.1 776.394 764.96 779.434 762.68C782.601 760.273 784.881 756.79 786.274 752.23C787.794 747.543 788.554 741.78 788.554 734.94C788.554 728.1 787.794 722.4 786.274 717.84C784.881 713.28 782.601 709.86 779.434 707.58C776.267 705.3 772.151 704.16 767.084 704.16C759.611 704.16 754.164 706.757 750.744 711.95C747.451 717.017 745.804 724.68 745.804 734.94ZM962.621 681.36C974.401 681.36 983.267 684.4 989.221 690.48C995.301 696.433 998.341 706.06 998.341 719.36V787H970.031V726.39C970.031 718.917 968.764 713.343 966.231 709.67C963.697 705.87 959.771 703.97 954.451 703.97C946.977 703.97 941.657 706.63 938.491 711.95C935.324 717.27 933.741 724.933 933.741 734.94V787H905.431V726.39C905.431 721.45 904.861 717.333 903.721 714.04C902.581 710.747 900.871 708.277 898.591 706.63C896.311 704.857 893.397 703.97 889.851 703.97C884.657 703.97 880.541 705.3 877.501 707.96C874.461 710.62 872.307 714.483 871.041 719.55C869.774 724.617 869.141 730.823 869.141 738.17V787H840.831V683.26H862.491L866.291 696.56H867.811C869.964 693.013 872.624 690.163 875.791 688.01C878.957 685.73 882.441 684.083 886.241 683.07C890.167 681.93 894.094 681.36 898.021 681.36C905.621 681.36 912.081 682.627 917.401 685.16C922.721 687.567 926.774 691.367 929.561 696.56H932.031C935.197 691.24 939.567 687.377 945.141 684.97C950.841 682.563 956.667 681.36 962.621 681.36ZM1055.8 683.26V787H1027.49V683.26H1055.8ZM1041.74 642.6C1045.92 642.6 1049.53 643.613 1052.57 645.64C1055.61 647.54 1057.13 651.15 1057.13 656.47C1057.13 661.663 1055.61 665.273 1052.57 667.3C1049.53 669.327 1045.92 670.34 1041.74 670.34C1037.43 670.34 1033.76 669.327 1030.72 667.3C1027.81 665.273 1026.35 661.663 1026.35 656.47C1026.35 651.15 1027.81 647.54 1030.72 645.64C1033.76 643.613 1037.43 642.6 1041.74 642.6ZM1127.56 788.9C1117.3 788.9 1108.56 787.063 1101.34 783.39C1094.12 779.59 1088.61 773.763 1084.81 765.91C1081.01 758.057 1079.11 747.987 1079.11 735.7C1079.11 723.033 1081.26 712.71 1085.57 704.73C1089.88 696.75 1095.83 690.86 1103.43 687.06C1111.16 683.26 1120.02 681.36 1130.03 681.36C1137.12 681.36 1143.27 682.057 1148.46 683.45C1153.78 684.843 1158.4 686.49 1162.33 688.39L1153.97 710.24C1149.54 708.467 1145.36 707.01 1141.43 705.87C1137.63 704.73 1133.83 704.16 1130.03 704.16C1125.09 704.16 1120.97 705.363 1117.68 707.77C1114.39 710.05 1111.92 713.533 1110.27 718.22C1108.75 722.78 1107.99 728.543 1107.99 735.51C1107.99 742.35 1108.81 748.05 1110.46 752.61C1112.23 757.043 1114.77 760.4 1118.06 762.68C1121.35 764.833 1125.34 765.91 1130.03 765.91C1135.98 765.91 1141.24 765.15 1145.8 763.63C1150.36 761.983 1154.79 759.767 1159.1 756.98V781.11C1154.79 783.897 1150.23 785.86 1145.42 787C1140.73 788.267 1134.78 788.9 1127.56 788.9ZM1255.37 756.22C1255.37 763.187 1253.72 769.14 1250.43 774.08C1247.14 778.893 1242.2 782.567 1235.61 785.1C1229.02 787.633 1220.85 788.9 1211.1 788.9C1203.88 788.9 1197.67 788.393 1192.48 787.38C1187.29 786.493 1182.09 784.973 1176.9 782.82V759.45C1182.47 761.983 1188.49 764.073 1194.95 765.72C1201.41 767.367 1207.11 768.19 1212.05 768.19C1217.62 768.19 1221.55 767.367 1223.83 765.72C1226.24 764.073 1227.44 761.92 1227.44 759.26C1227.44 757.487 1226.93 755.903 1225.92 754.51C1225.03 753.117 1223.01 751.533 1219.84 749.76C1216.67 747.987 1211.73 745.707 1205.02 742.92C1198.56 740.133 1193.24 737.41 1189.06 734.75C1184.88 731.963 1181.78 728.67 1179.75 724.87C1177.72 720.943 1176.71 716.067 1176.71 710.24C1176.71 700.613 1180.45 693.393 1187.92 688.58C1195.39 683.767 1205.34 681.36 1217.75 681.36C1224.21 681.36 1230.35 681.993 1236.18 683.26C1242.01 684.527 1248.02 686.617 1254.23 689.53L1245.68 709.86C1242.26 708.34 1238.97 707.01 1235.8 705.87C1232.63 704.73 1229.53 703.843 1226.49 703.21C1223.58 702.577 1220.54 702.26 1217.37 702.26C1213.19 702.26 1210.02 702.83 1207.87 703.97C1205.84 705.11 1204.83 706.82 1204.83 709.1C1204.83 710.747 1205.34 712.267 1206.35 713.66C1207.49 714.927 1209.58 716.32 1212.62 717.84C1215.79 719.36 1220.41 721.387 1226.49 723.92C1232.44 726.327 1237.57 728.86 1241.88 731.52C1246.19 734.053 1249.48 737.283 1251.76 741.21C1254.17 745.01 1255.37 750.013 1255.37 756.22Z" fill="#181972"/>
<path d="M248.875 637H220.565V501.34H298.275V524.9H248.875V559.86H294.855V583.42H248.875V637ZM417.752 533.26V637H396.092L392.292 623.7H390.772C388.619 627.247 385.832 630.16 382.412 632.44C379.119 634.593 375.446 636.177 371.392 637.19C367.339 638.33 363.159 638.9 358.852 638.9C351.506 638.9 345.046 637.57 339.472 634.91C333.899 632.25 329.592 628.133 326.552 622.56C323.512 616.987 321.992 609.767 321.992 600.9V533.26H350.302V593.87C350.302 601.217 351.632 606.79 354.292 610.59C356.952 614.39 361.196 616.29 367.022 616.29C372.849 616.29 377.346 614.96 380.512 612.3C383.806 609.64 386.086 605.777 387.352 600.71C388.746 595.643 389.442 589.437 389.442 582.09V533.26H417.752ZM506.335 531.36C517.482 531.36 526.412 534.4 533.125 540.48C539.839 546.433 543.195 556.06 543.195 569.36V637H514.885V576.39C514.885 568.917 513.555 563.343 510.895 559.67C508.235 555.87 503.992 553.97 498.165 553.97C489.552 553.97 483.662 556.947 480.495 562.9C477.329 568.727 475.745 577.15 475.745 588.17V637H447.435V533.26H469.095L472.895 546.56H474.415C476.695 543.013 479.482 540.163 482.775 538.01C486.069 535.73 489.742 534.083 493.795 533.07C497.849 531.93 502.029 531.36 506.335 531.36ZM631.208 531.36C642.355 531.36 651.285 534.4 657.998 540.48C664.712 546.433 668.068 556.06 668.068 569.36V637H639.758V576.39C639.758 568.917 638.428 563.343 635.768 559.67C633.108 555.87 628.865 553.97 623.038 553.97C614.425 553.97 608.535 556.947 605.368 562.9C602.202 568.727 600.618 577.15 600.618 588.17V637H572.308V533.26H593.968L597.768 546.56H599.288C601.568 543.013 604.355 540.163 607.648 538.01C610.942 535.73 614.615 534.083 618.668 533.07C622.722 531.93 626.902 531.36 631.208 531.36ZM682.361 533.26H713.331L732.901 591.59C733.535 593.49 734.041 595.39 734.421 597.29C734.928 599.19 735.308 601.153 735.561 603.18C735.941 605.207 736.195 607.36 736.321 609.64H736.891C737.271 606.347 737.778 603.243 738.411 600.33C739.171 597.29 739.995 594.377 740.881 591.59L760.071 533.26H790.471L746.581 650.3C743.921 657.393 740.438 663.347 736.131 668.16C731.951 672.973 727.075 676.583 721.501 678.99C715.928 681.397 709.848 682.6 703.261 682.6C700.095 682.6 697.308 682.41 694.901 682.03C692.621 681.777 690.595 681.46 688.821 681.08V658.66C690.215 658.913 691.861 659.167 693.761 659.42C695.788 659.673 697.878 659.8 700.031 659.8C703.958 659.8 707.315 658.977 710.101 657.33C713.015 655.683 715.421 653.403 717.321 650.49C719.221 647.703 720.741 644.663 721.881 641.37L723.591 636.24L682.361 533.26Z" fill="#181972"/>
<path d="M433.496 929V793.34H462.186V905.25H517.286V929H433.496ZM581.208 823.17C595.141 823.17 605.781 826.21 613.128 832.29C620.601 838.243 624.338 847.427 624.338 859.84V929H604.578L599.068 914.94H598.308C595.395 918.613 592.355 921.653 589.188 924.06C586.148 926.467 582.601 928.177 578.548 929.19C574.621 930.33 569.745 930.9 563.918 930.9C557.838 930.9 552.328 929.76 547.388 927.48C542.575 925.073 538.775 921.463 535.988 916.65C533.201 911.71 531.808 905.503 531.808 898.03C531.808 887.01 535.671 878.903 543.398 873.71C551.125 868.39 562.715 865.477 578.168 864.97L596.218 864.4V859.84C596.218 854.393 594.761 850.403 591.848 847.87C589.061 845.337 585.135 844.07 580.068 844.07C575.001 844.07 570.061 844.83 565.248 846.35C560.435 847.743 555.621 849.517 550.808 851.67L541.498 832.48C547.071 829.567 553.215 827.287 559.928 825.64C566.768 823.993 573.861 823.17 581.208 823.17ZM585.198 881.31C576.078 881.563 569.745 883.21 566.198 886.25C562.651 889.29 560.878 893.28 560.878 898.22C560.878 902.527 562.145 905.63 564.678 907.53C567.211 909.303 570.505 910.19 574.558 910.19C580.638 910.19 585.768 908.417 589.948 904.87C594.128 901.197 596.218 896.067 596.218 889.48V880.93L585.198 881.31ZM712.216 823.36C723.363 823.36 732.293 826.4 739.006 832.48C745.719 838.433 749.076 848.06 749.076 861.36V929H720.766V868.39C720.766 860.917 719.436 855.343 716.776 851.67C714.116 847.87 709.873 845.97 704.046 845.97C695.433 845.97 689.543 848.947 686.376 854.9C683.209 860.727 681.626 869.15 681.626 880.17V929H653.316V825.26H674.976L678.776 838.56H680.296C682.576 835.013 685.363 832.163 688.656 830.01C691.949 827.73 695.623 826.083 699.676 825.07C703.729 823.93 707.909 823.36 712.216 823.36ZM811.059 930.9C799.532 930.9 790.096 926.403 782.749 917.41C775.529 908.29 771.919 894.927 771.919 877.32C771.919 859.587 775.592 846.16 782.939 837.04C790.286 827.92 799.912 823.36 811.819 823.36C816.759 823.36 821.129 824.057 824.929 825.45C828.729 826.717 831.959 828.49 834.619 830.77C837.406 833.05 839.749 835.647 841.649 838.56H842.599C842.219 836.533 841.776 833.62 841.269 829.82C840.762 825.893 840.509 821.903 840.509 817.85V784.6H868.819V929H847.159L841.649 915.51H840.509C838.736 918.297 836.456 920.893 833.669 923.3C831.009 925.58 827.842 927.417 824.169 928.81C820.496 930.203 816.126 930.9 811.059 930.9ZM820.939 908.29C828.792 908.29 834.302 906.01 837.469 901.45C840.636 896.763 842.282 889.797 842.409 880.55V877.51C842.409 867.377 840.826 859.65 837.659 854.33C834.619 849.01 828.919 846.35 820.559 846.35C814.352 846.35 809.476 849.073 805.929 854.52C802.382 859.84 800.609 867.567 800.609 877.7C800.609 887.833 802.382 895.497 805.929 900.69C809.476 905.757 814.479 908.29 820.939 908.29Z" fill="#181972"/>
</svg>
